<svg xmlns="http://www.w3.org/2000/svg" viewBox="0 0 512 512" role="img" aria-labelledby="title description">
  <title id="title">HouseMouse mascot</title>
  <description id="description">An ivory pixel-style mouse holding a light blue folder.</description>
  <g stroke="#584b3f" stroke-width="12" stroke-linecap="square" stroke-linejoin="miter">
    <path d="M374 358h38v-34h28v-35h29v-28h28" fill="none" stroke="#efc6ad" />
    <path d="M190 425h48v27h-62v-18zm98 0h52l14 27h-70z" fill="#f7d9c6" />
    <path d="M155 173v-42h-19V86h20V61h31V43h53v18h22v25h22v45h22V86h22V61h31V43h53v18h22v25h20v45h-19v42h-29v31h-18v57h22v40h18v90h-28v34H163v-34h-26v-90h18v-40h21v-57h-20v-31z" fill="#fff8ee" />
    <path d="M156 131V86h20V61h31V48h33v13h22v25h22v45h-29v-31h-20v-18h-42v18h-20v31z" fill="#fff8ee" />
    <path d="M306 131V86h22V61h31V48h33v13h22v25h20v45h-29v-31h-20v-18h-42v18h-20v31z" fill="#fff8ee" />
    <path d="M188 103h55v55h-55z" fill="#f8d9c4" stroke="none" />
    <path d="M347 103h55v55h-55z" fill="#f8d9c4" stroke="none" />
    <path d="M204 210v24m102-24v24" fill="none" stroke-width="17" />
    <path d="M253 238h13v13h-13z" fill="#584b3f" stroke="none" />
    <path d="M157 222h-46m46 23h-55m304-23h46m-46 23h55" fill="none" stroke-width="8" />
    <path d="M168 279h102l18 17h53v134H165V294z" fill="#bcd9f5" />
    <path d="M270 279h92l-21 33h-53z" fill="#ffffff" />
    <path d="M151 321h24v55h-24c-15 0-25-10-25-27s10-28 25-28zm207 0h25v55h-25c-15 0-25-10-25-27s10-28 25-28z" fill="#fff8ee" />
  </g>
</svg>
